<svg id="图层_1" data-name="图层 1" xmlns="http://www.w3.org/2000/svg" xmlns:xlink="http://www.w3.org/1999/xlink" viewBox="0 0 901.22 271.09"><defs><style>.cls-1{fill:url(#未命名的渐变_87);}.cls-2{fill:url(#未命名的渐变_87-2);}.cls-3{font-size:179.87px;fill:#fff;stroke:#fff;stroke-miterlimit:10;stroke-width:3px;font-family:FOT-TsukuARdGothic-Std-M, SBT-TsukuARdGothic Std M;}</style><linearGradient id="未命名的渐变_87" x1="5.01" y1="140.19" x2="290" y2="140.19" gradientUnits="userSpaceOnUse"><stop offset="0" stop-color="#ff387e"/><stop offset="1" stop-color="#f45e3a"/></linearGradient><linearGradient id="未命名的渐变_87-2" x1="197.75" y1="90.37" x2="298.06" y2="90.37" xlink:href="#未命名的渐变_87"/></defs><title>logo-text</title><path class="cls-1" d="M96.9,4.65S-41.3,58.31,21.26,213.41c0,0,.16-15.65,5.43-22.46,0,0,19.7,75.61,113.22,84.79,0,0-17.44-3.47-17.8-16.12,0,0,64.47,16.12,108.91-7.14,0,0-13,0-17.09-8.38,0,0,53.22-5.75,76.07-61.37,0,0-14.05,9-20.38,9,0,0,4.57-16.28,0-27.1,0,0-13.54,15.51-21.42,18.07,0,0,4.72-24.21-.7-35.57,0,0-19.24,12.32-24.52,12.32,0,0,3.12-36.28-7-36.28,0,0-5.52,12.61-18.22,13,0,0,2.69-10.87-2.51-19,0,0-44.92,49.43-98.52,16.63,0,0,13,2,18.75-7.12C115.47,126.69,27.91,80.42,96.9,4.65Z" transform="translate(-5.01 -4.65)"/><path class="cls-2" d="M205.52,117c42.39-63.67-7.77-112.39-7.77-112.39,75.64,22,84.62,82.25,84.62,82.25,3.22-2,3.31-7.21,3.31-7.21,14.51,30,5.59,48.41,5.59,48.41,8.6-5,6.58-5.84,6.58-5.84,0,33.92-13.41,53.82-13.41,53.82-4.32-26.3-11.05-30.56-11.05-30.56l-13.34,14c4.25-4.48-5.76-37.08-5.76-37.08-6.11,13.83-21.9,23.12-21.9,23.12,1.73-12.23-5.19-45.43-5.19-45.43Z" transform="translate(-5.01 -4.65)"/><text class="cls-3" transform="translate(352.26 181.51)">Apifox</text></svg>