<?xml version="1.0" standalone="no"?>
<!DOCTYPE svg PUBLIC "-//W3C//DTD SVG 20010904//EN"
 "http://www.w3.org/TR/2001/REC-SVG-20010904/DTD/svg10.dtd">
<svg version="1.0" xmlns="http://www.w3.org/2000/svg"
 width="290.000000pt" height="290.000000pt" viewBox="0 0 290.000000 290.000000"
 preserveAspectRatio="xMidYMid meet">
<g transform="translate(0.000000,290.000000) scale(0.100000,-0.100000)"
fill="#000000" stroke="none">
<path d="M1255 2892 c-3 -4 -16 -7 -28 -8 -32 -2 -74 -11 -137 -29 -30 -8 -65
-18 -78 -20 -67 -15 -312 -130 -312 -146 0 -6 -4 -8 -9 -5 -5 3 -14 -1 -21 -9
-7 -8 -17 -15 -22 -15 -5 0 -15 -6 -23 -12 -26 -25 -55 -48 -55 -43 0 15 -227
-207 -263 -258 -80 -112 -107 -153 -107 -163 0 -7 -4 -14 -10 -16 -9 -3 -109
-215 -115 -243 -4 -21 -26 -101 -32 -115 -3 -8 -7 -24 -9 -35 -1 -11 -5 -33
-9 -50 -17 -78 -20 -121 -20 -275 0 -161 4 -225 14 -245 3 -5 6 -18 8 -30 1
-11 4 -27 6 -35 2 -8 7 -36 12 -62 4 -27 12 -48 18 -48 6 0 8 -3 5 -6 -4 -3 0
-21 8 -40 8 -19 15 -37 15 -41 6 -34 118 -258 141 -283 10 -11 18 -22 18 -25
0 -34 296 -345 328 -345 5 0 17 -9 27 -20 10 -11 24 -20 30 -20 7 0 16 -7 19
-16 3 -8 10 -13 15 -9 6 3 13 0 18 -7 4 -8 27 -22 50 -33 24 -11 43 -23 43
-27 0 -5 7 -8 14 -8 8 0 35 -11 60 -24 26 -14 46 -22 46 -19 0 3 7 0 15 -7 8
-6 19 -9 25 -5 5 3 10 2 10 -4 0 -5 14 -13 32 -16 18 -4 39 -11 48 -15 13 -7
87 -25 145 -35 11 -2 20 -4 20 -5 0 -12 394 -19 470 -7 22 3 40 6 40 7 0 2 35
9 65 13 14 2 31 7 38 11 7 4 12 5 12 1 0 -3 14 1 30 10 17 9 30 13 30 10 0 -6
124 40 172 65 20 10 39 16 42 13 3 -4 6 -2 6 3 0 6 16 16 35 24 19 8 35 17 35
22 0 4 3 7 8 6 4 -1 27 11 51 27 24 17 52 35 61 40 69 41 260 225 305 294 15
22 32 41 36 41 5 0 9 7 9 15 0 8 4 15 9 15 5 0 11 8 15 17 3 10 15 32 25 48
11 17 35 59 53 95 18 36 36 66 40 68 4 2 4 10 1 18 -3 8 1 14 8 14 7 0 9 3 6
7 -4 3 -3 11 2 17 5 6 14 29 20 51 7 22 15 47 18 55 4 8 7 17 8 20 9 38 27
112 30 126 2 11 4 19 5 19 12 0 22 453 10 460 -4 2 -6 16 -5 30 2 14 0 25 -3
25 -4 0 -8 13 -8 30 -1 16 -5 37 -9 47 -4 10 -9 27 -10 38 -3 21 -8 40 -17 65
-3 8 -14 38 -24 65 -9 28 -27 70 -38 95 -11 25 -19 48 -18 53 1 4 -3 7 -8 7
-6 0 -10 5 -10 11 0 18 -87 157 -143 229 -63 81 -192 212 -201 203 -3 -3 -6 0
-6 8 0 8 -13 23 -30 32 -16 10 -35 23 -42 30 -35 33 -163 112 -170 105 -2 -1
-13 7 -26 17 -12 11 -26 20 -30 21 -6 1 -58 22 -107 44 -34 15 -179 61 -205
65 -14 3 -36 7 -50 10 -14 3 -36 8 -50 11 -37 8 -418 13 -425 6z m-245 -750
c3 -4 32 -27 65 -52 33 -25 83 -63 111 -85 28 -22 61 -47 74 -55 12 -8 28 -20
34 -25 6 -6 27 -22 46 -35 19 -13 37 -27 40 -31 11 -14 47 -25 74 -23 30 3
106 50 106 66 0 5 4 7 9 4 5 -4 11 -2 13 2 1 5 30 28 63 53 33 24 62 46 65 49
10 10 155 117 181 134 30 19 89 17 114 -4 8 -7 15 -9 15 -6 0 4 7 1 15 -6 54
-45 75 -67 75 -77 0 -6 5 -11 10 -11 15 0 32 -48 35 -94 3 -37 -1 -45 -33 -81
-7 -8 -11 -15 -8 -15 2 0 -4 -10 -15 -22 -56 -65 -243 -317 -254 -344 -14 -31
-14 -45 0 -79 10 -23 66 -98 78 -103 4 -2 7 -8 7 -14 0 -5 6 -16 13 -23 17
-19 25 -30 82 -105 27 -36 54 -68 60 -72 5 -4 6 -8 2 -8 -4 0 2 -10 14 -22 59
-63 71 -112 39 -164 -44 -70 -148 -161 -174 -151 -8 3 -16 1 -18 -5 -6 -17
-72 17 -151 77 -39 30 -76 58 -82 63 -53 40 -101 78 -105 83 -3 3 -35 27 -72
52 -54 37 -73 44 -102 41 -20 -1 -43 -9 -50 -16 -7 -7 -24 -20 -36 -28 -13 -8
-32 -23 -42 -32 -10 -10 -18 -15 -18 -10 0 4 -4 2 -8 -4 -4 -5 -25 -23 -47
-39 -22 -17 -42 -33 -45 -36 -3 -3 -29 -22 -59 -42 -29 -21 -49 -37 -45 -37 5
0 -7 -10 -26 -21 -19 -12 -37 -25 -40 -28 -17 -24 -84 -32 -120 -14 -41 20
-150 131 -150 153 0 6 -4 10 -9 10 -7 0 -8 23 -2 76 0 6 30 48 66 94 36 46 65
86 65 89 0 3 14 20 30 38 17 18 30 35 30 38 0 4 7 13 15 21 35 35 104 142 109
168 3 16 -2 42 -10 58 -15 29 -26 43 -76 103 -16 18 -28 37 -28 43 0 6 -4 12
-8 14 -4 2 -44 50 -87 108 -43 58 -82 107 -85 110 -8 6 -22 39 -27 63 -9 46
84 164 162 206 38 21 100 22 115 3z"/>
</g>
</svg>
