<?xml version="1.0" standalone="no"?><!DOCTYPE svg PUBLIC "-//W3C//DTD SVG 1.1//EN" "http://www.w3.org/Graphics/SVG/1.1/DTD/svg11.dtd"><svg t="1583285884864" class="icon" viewBox="0 0 1024 1024" version="1.1" xmlns="http://www.w3.org/2000/svg" p-id="813" xmlns:xlink="http://www.w3.org/1999/xlink" width="200" height="200"><defs><style type="text/css"></style></defs><path d="M1024 384a256.298667 256.298667 0 0 0-240.725333-255.530667 10.752 10.752 0 0 1-7.594667-3.882666A341.333333 341.333333 0 0 0 183.466667 249.088a10.666667 10.666667 0 0 1-9.258667 7.765333 192 192 0 0 0-15.914667 380.16 10.709333 10.709333 0 0 0 12.373334-10.496v-65.621333a10.581333 10.581333 0 0 0-7.765334-10.24A106.666667 106.666667 0 0 1 209.066667 342.698667a42.368 42.368 0 0 0 32.298666-7.722667 42.922667 42.922667 0 0 0 17.066667-28.586667 256 256 0 0 1 463.914667-110.933333 42.666667 42.666667 0 0 0 37.248 18.218667 170.666667 170.666667 0 0 1 98.773333 315.221333 10.624 10.624 0 0 0-4.992 9.045333v71.936a10.624 10.624 0 0 0 14.848 9.813334A256.298667 256.298667 0 0 0 1024 384z" p-id="814" fill="#ffffff"></path><path d="M789.333333 533.333333A64 64 0 0 0 725.333333 469.333333H298.666667a64 64 0 0 0-64 64v426.666667A64 64 0 0 0 298.666667 1024h426.666666a64 64 0 0 0 64-64z m-180.522666 182.186667a36.096 36.096 0 0 1 0 62.336l-157.866667 91.989333a35.754667 35.754667 0 0 1-53.546667-31.189333v-183.978667a35.712 35.712 0 0 1 53.546667-31.189333z" p-id="815" fill="#ffffff"></path></svg>