<svg class="w-10 fill-gray-100 dark:fill-none" viewBox="0 0 46 32" xmlns="http://www.w3.org/2000/svg">
  <path
    d="M41.6875 1.52728H4.31252C2.7644 1.52728 1.5094 2.79717 1.5094 4.36365V27.6364C1.5094 29.2029 2.7644 30.4727 4.31252 30.4727H41.6875C43.2356 30.4727 44.4907 29.2029 44.4907 27.6364V4.36365C44.4907 2.79717 43.2356 1.52728 41.6875 1.52728Z"
    stroke="url(#paint0_linear_236_67)" stroke-width="2"></path>
  <path
    d="M14.5188 30.4727H4.31252C2.7644 30.4727 1.5094 29.2028 1.5094 27.6364V11.6364C1.5094 10.0699 2.7644 8.79999 4.31252 8.79999H14.5188C16.0669 8.79999 17.3219 10.0699 17.3219 11.6364V14.5"
    stroke="url(#paint1_linear_236_67)" stroke-width="2"></path>
  <path
    d="M18.6875 14.6182H15.8125C14.2644 14.6182 13.0094 15.8881 13.0094 17.4546V27.6364C13.0094 29.2029 14.2644 30.4727 15.8125 30.4727H18.6875C20.2356 30.4727 21.4906 29.2029 21.4906 27.6364V17.4546C21.4906 15.8881 20.2356 14.6182 18.6875 14.6182Z"
    stroke="url(#paint2_linear_236_67)" stroke-width="2"></path>
  <defs>
    <linearGradient id="paint0_linear_236_67" x1="23" y1="1.52728" x2="23" y2="30.4727" gradientUnits="userSpaceOnUse">
      <stop stop-color="#FFDA7C"></stop>
      <stop offset="1" stop-color="#EDAD06"></stop>
    </linearGradient>
    <linearGradient id="paint1_linear_236_67" x1="9.41565" y1="8.79999" x2="9.41565" y2="30.4727"
      gradientUnits="userSpaceOnUse">
      <stop stop-color="#FFDA7C"></stop>
      <stop offset="1" stop-color="#EDAD06"></stop>
    </linearGradient>
    <linearGradient id="paint2_linear_236_67" x1="17.25" y1="14.6182" x2="17.25" y2="30.4727"
      gradientUnits="userSpaceOnUse">
      <stop stop-color="#FFDA7C"></stop>
      <stop offset="1" stop-color="#EDAD06"></stop>
    </linearGradient>
  </defs>
</svg>