<?xml version="1.0" encoding="UTF-8"?>
<svg xmlns="http://www.w3.org/2000/svg" x="0px" y="0px" viewBox="0 0 157 161" fill="none" xml:space="preserve">
<path d="M152.657 0.110801C146.602 1.75604 140.514 3.27583 134.416 4.7329C132.019 5.30704 130.073 8.36593 130.073 11.5454V69.7076C130.073 72.8437 132.019 75.3526 134.416 75.2947C140.495 75.15 146.573 74.9811 152.657 74.7736C155.049 74.6916 157 71.8402 157 68.4388V5.2202C157 1.74639 155.054 -0.540539 152.657 0.110801Z" fill="#329A2C"></path>
<path d="M152.657 3.85014C153.611 3.60408 154.392 4.51596 154.392 5.89583C154.392 26.7966 154.392 47.6877 154.392 68.5885C154.392 69.9394 153.616 71.0732 152.657 71.1166C146.578 71.3965 140.495 71.6281 134.416 71.8355C133.457 71.8693 132.676 70.8706 132.676 69.6017C132.676 50.0615 132.676 30.5165 132.676 10.9715C132.676 9.68808 133.452 8.46742 134.416 8.25031C140.514 6.86561 146.602 5.42301 152.657 3.85014Z" fill="white"></path>
<path d="M137.269 17.8369C124.522 20.2831 111.751 22.6086 99.0469 25.3008C95.3652 26.2899 93.0402 29.9567 92.9683 33.6765C92.9683 55.0646 92.9683 76.4478 92.9683 97.8311C92.9683 101.701 95.696 105.078 99.0469 105.358C111.789 106.424 124.526 107.495 137.269 108.561C141.401 108.692 143.405 104.229 143.352 100.663C143.352 75.4298 143.352 50.1964 143.352 24.9582C143.352 20.3747 140.624 17.1808 137.269 17.8321" fill="#329A2C"></path>
<path d="M137.269 22.5071C138.707 22.2466 139.877 23.6168 139.877 25.5612V100.47C139.877 102.434 138.712 103.949 137.269 103.852C124.531 102.984 111.789 102.11 99.0469 101.247C97.6088 101.15 96.4438 99.7078 96.4438 98.0191V32.9865C96.4438 31.3026 97.6088 29.696 99.0469 29.4065C111.756 26.9121 124.517 24.7651 137.269 22.5071Z" fill="white"></path>
<path d="M124.699 159.101V37.855C123.309 37.5655 122.613 37.4208 121.228 37.1265V160.553L124.699 159.096V159.101Z" fill="#4B4B4D"></path>
<path d="M121.223 160.557L1.40918 138.711V60.0677L121.223 37.1309V160.557Z" fill="#4B4B4B"></path>
<path d="M116.559 152.182L0 135.068V61.5199L116.559 44.4114V152.182Z" fill="white"></path>
<path d="M23.5095 146.513L88.625 158.84V149.475L23.5095 139.025V146.513Z" fill="#4B4B4D"></path>
<path d="M25.6807 144.327L86.4529 155.564V151.661L25.6807 141.205V144.327Z" fill="white"></path>
<path d="M92.1001 157.383V153.017L88.6245 152.288V158.845L92.1001 157.383Z" fill="#4B4B4D"></path>
<path d="M29.1278 79.6225C27.7184 79.719 27.0137 79.7721 25.6091 79.8686C25.5851 79.7094 25.5659 79.5888 25.5612 79.5068C25.4653 78.6142 25.2783 78.0207 24.9427 77.8181C24.6024 77.6155 23.7778 77.572 22.4691 77.6734C20.5947 77.8277 19.6551 78.6624 19.6551 80.187C19.6551 81.2244 19.8229 81.8323 20.1536 82.0108C20.4844 82.1893 21.6014 82.2762 23.5094 82.281C26.0741 82.281 27.7424 82.6235 28.5142 83.3038C29.2908 83.9841 29.6791 85.4508 29.6791 87.6943C29.6791 90.0922 29.1614 91.7712 28.1307 92.7072C27.0952 93.6481 25.2448 94.1257 22.5793 94.1547C20.0146 94.1884 18.2601 93.8073 17.3204 93.0305C16.3808 92.2489 15.9062 90.7918 15.9062 88.6255V88.1575C17.4019 88.0996 18.145 88.0707 19.6407 88.0128C19.588 88.2781 19.5592 88.4952 19.5448 88.6496C19.4202 90.3045 20.4221 91.1296 22.6225 91.0765C24.8948 91.0186 26.031 90.1357 26.031 88.4373C26.031 86.739 25.3215 86.0202 23.8977 86.0829C20.6858 86.2276 18.5669 85.943 17.5458 85.2385C16.5247 84.5341 16.0165 83.0047 16.0165 80.6357C16.0165 78.5129 16.4815 77.0365 17.4163 76.2018C18.3463 75.3671 20.1345 74.8123 22.7855 74.5662C25.2879 74.3298 26.9706 74.5518 27.8335 75.2369C28.6964 75.922 29.1278 77.3839 29.1278 79.6129" fill="#4B4B4D"></path>
<path d="M39.4344 76.8866C38.0634 76.9927 37.1717 77.48 36.7498 78.3436C36.3328 79.2024 36.1218 80.9779 36.1218 83.6605C36.1218 86.343 36.3471 88.0028 36.7978 88.8471C37.2484 89.6914 38.164 90.1015 39.5447 90.0629C40.9445 90.0243 41.8601 89.5805 42.2772 88.7361C42.6943 87.887 42.9052 86.0873 42.9052 83.3276C42.9052 80.5678 42.6943 78.691 42.2676 77.8998C41.8409 77.1085 40.8965 76.7756 39.4344 76.8866ZM32.5072 73.9194C33.907 73.7891 34.607 73.7215 36.0068 73.5961C35.9492 74.7974 35.9253 75.4005 35.8678 76.5971C35.8965 76.6067 35.9157 76.6067 35.9445 76.6116C36.8122 74.3632 38.4277 73.1136 40.7959 72.8917C42.9819 72.689 44.4872 73.2921 45.3117 74.7299C46.1315 76.1677 46.5438 78.8985 46.5438 82.9078C46.5438 86.9172 46.1363 89.9761 45.3213 91.5345C44.5016 93.0929 42.9915 93.8793 40.7815 93.9082C38.4229 93.9372 36.8841 92.895 36.165 90.8011H36.0979V102.38C34.6597 102.347 33.9406 102.332 32.5024 102.303V73.9145L32.5072 73.9194Z" fill="#4B4B4D"></path>
<path d="M55.6854 83.7573C53.6528 83.8587 52.6365 84.9104 52.6365 86.9127C52.6365 88.3071 52.8474 89.2093 53.2645 89.6339C53.6815 90.0584 54.5636 90.2514 55.9011 90.2177C58.0919 90.1646 59.1849 89.0549 59.1849 86.8934C59.1849 84.7319 58.02 83.6415 55.6806 83.7525M53.2836 78.2282C51.8119 78.3295 51.0784 78.3826 49.6067 78.4839C49.6067 75.9413 50.0286 74.2044 50.8627 73.2684C51.6969 72.3324 53.3603 71.7437 55.8436 71.5121C58.5425 71.2564 60.369 71.6279 61.3182 72.6411C62.2722 73.6543 62.7516 75.7241 62.7516 78.8216V93.373C61.3134 93.3923 60.5943 93.402 59.1514 93.4213C59.2233 92.2151 59.2568 91.612 59.3239 90.4058C59.2856 90.3962 59.2664 90.3962 59.2281 90.3865C58.5377 92.5963 56.8647 93.6094 54.439 93.7349C51.3805 93.8893 48.9787 91.1247 48.9883 87.2697C48.9979 83.3231 51.438 80.4138 54.5636 80.3269C56.9797 80.2642 58.5521 80.9107 59.0842 82.556C59.1082 82.556 59.1226 82.556 59.1466 82.5512V78.9905C59.1466 77.2729 58.9404 76.1535 58.5377 75.6277C58.1303 75.1018 57.2913 74.8895 56.021 74.9908C54.1897 75.1355 53.274 76.2163 53.274 78.2282" fill="#4B4B4D"></path>
<path d="M75.8969 84.3027C77.3254 84.2399 78.0445 84.2062 79.4779 84.1483V84.9588C79.3868 86.3966 79.3485 87.1107 79.2574 88.5388C78.8163 91.8051 76.6687 93.4504 72.8144 93.4986C69.9908 93.5372 68.1116 92.7846 67.1768 91.2648C66.2467 89.745 65.7817 86.6861 65.7817 82.0592C65.7817 77.4322 66.2467 74.465 67.1768 72.8101C68.1116 71.1553 69.9189 70.1903 72.613 69.9394C75.2065 69.6982 76.9707 70.1179 77.8911 71.2228C78.8115 72.3277 79.2718 74.5567 79.2718 77.8906C77.848 77.9823 77.1289 78.0305 75.7051 78.1174C75.7051 75.4058 74.6936 74.1321 72.6754 74.2913C71.242 74.4023 70.3407 74.8944 69.9764 75.7677C69.6073 76.641 69.4251 78.7156 69.4251 82.0061C69.4251 85.2966 69.6264 87.1734 70.0291 87.9791C70.427 88.7848 71.4146 89.1708 72.987 89.1274C74.2238 89.0936 75.0148 88.7848 75.3647 88.1962C75.7147 87.6124 75.8921 86.3098 75.8921 84.293" fill="#4B4B4D"></path>
<path d="M91.8224 78.1603C91.8128 77.7695 91.8128 77.5765 91.808 77.1857C91.808 75.2365 91.6019 73.9821 91.1896 73.4321C90.7773 72.8821 89.8761 72.665 88.4955 72.7759C87.1532 72.8821 86.2855 73.2922 85.8828 74.0159C85.4801 74.7348 85.2787 76.2497 85.2787 78.5608C87.8962 78.3967 89.2049 78.3196 91.8272 78.1603M91.7889 85.1224C93.2318 85.0645 93.9557 85.0356 95.3987 84.9825V85.9426C95.5569 90.8398 92.3497 93.3486 88.8023 93.3004C85.8828 93.2618 83.8693 92.5525 82.9441 90.9555C82.0237 89.3634 81.5635 85.9764 81.5635 80.7802C81.5635 76.1629 82.0429 73.0268 83.0064 71.343C83.97 69.664 85.8492 68.6846 88.6441 68.424C91.3238 68.1731 93.1168 68.8052 94.0276 70.3394C94.9384 71.8737 95.3939 75.0194 95.3939 79.767V81.5859C92.0094 81.7548 88.6201 81.9236 85.2308 82.0925C85.2116 82.6329 85.202 82.9802 85.202 83.1491C85.202 85.5132 85.4274 87.0765 85.8828 87.8532C86.3382 88.63 87.249 89.0015 88.6105 88.9629C89.9288 88.9292 90.7869 88.6734 91.1848 88.191C91.5779 87.7133 91.7793 86.6905 91.7793 85.1321" fill="#4B4B4D"></path>
<path d="M29.0508 109.145C27.7085 109.082 26.8408 109.411 26.4429 110.125C26.045 110.839 25.8436 112.412 25.8436 114.838C25.8436 117.642 26.045 119.465 26.4429 120.314C26.8408 121.164 27.7324 121.661 29.1083 121.796C30.556 121.936 31.4765 121.627 31.884 120.845C32.2866 120.068 32.488 118.201 32.488 115.248C32.488 112.807 32.2675 111.196 31.8216 110.414C31.3758 109.632 30.4506 109.208 29.0508 109.14M36.1026 97.2763V126.051C34.698 125.892 34.0029 125.815 32.603 125.655C32.651 124.382 32.6749 123.74 32.7277 122.466C32.7037 122.457 32.6893 122.452 32.6654 122.442C31.9654 124.686 30.4362 125.655 28.0776 125.39C25.6998 125.12 24.1274 124.242 23.3604 122.78C22.5934 121.318 22.2051 118.491 22.2051 114.274C22.2051 110.872 22.6174 108.537 23.4467 107.239C24.2712 105.942 25.743 105.324 27.8619 105.392C30.3116 105.474 31.8408 106.54 32.4448 108.619C32.4688 108.61 32.4832 108.605 32.5072 108.6V97.2715H36.1026" fill="#329A2C"></path>
<path d="M49.3439 114.756C49.3343 114.419 49.3295 114.25 49.3247 113.912C49.3247 112.223 49.1186 111.123 48.7063 110.602C48.294 110.081 47.3928 109.787 46.0121 109.724C44.6698 109.661 43.8022 109.917 43.3995 110.486C42.9968 111.061 42.7954 112.339 42.7954 114.332C45.4129 114.505 46.7216 114.587 49.3439 114.761M49.3103 120.763C50.7533 120.889 51.4772 120.956 52.9249 121.082V121.911C53.1167 126.572 49.2816 127.923 46.3285 127.45C43.457 126.992 41.3908 126.186 40.4656 124.705C39.5452 123.219 39.085 120.256 39.085 115.794C39.085 111.828 39.5644 109.189 40.5279 107.857C41.4915 106.525 43.3659 105.888 46.1655 105.98C48.8453 106.072 50.643 106.82 51.5491 108.253C52.4599 109.681 52.9201 112.465 52.9201 116.566V118.138C49.5309 117.878 46.1464 117.617 42.7571 117.357C42.7331 117.815 42.7235 118.119 42.7235 118.259C42.7235 120.295 42.9488 121.67 43.4091 122.389C43.8597 123.113 44.7705 123.547 46.132 123.682C47.4503 123.812 48.3084 123.697 48.7111 123.335C49.1042 122.968 49.3055 122.109 49.3055 120.763" fill="#329A2C"></path>
<path d="M68.4571 113.251C67.0477 113.174 66.3478 113.135 64.9384 113.058C64.9192 112.865 64.9001 112.725 64.8905 112.633C64.7946 111.577 64.6076 110.868 64.2673 110.583C63.9269 110.303 63.1023 110.134 61.7936 110.076C59.9192 109.989 58.9796 110.834 58.9796 112.609C58.9796 113.815 59.1426 114.549 59.4734 114.8C59.8042 115.051 60.9259 115.306 62.8291 115.572C65.389 115.924 67.0621 116.546 67.8387 117.439C68.6153 118.336 68.9988 120.083 68.9988 122.683C68.9988 125.458 68.4811 127.334 67.4504 128.29C66.4197 129.24 64.5741 129.559 61.8991 129.255C59.3343 128.96 57.5798 128.295 56.6354 127.267C55.6958 126.239 55.2212 124.473 55.2212 121.945V121.4C56.7169 121.535 57.4647 121.598 58.9604 121.733C58.9077 122.032 58.8789 122.278 58.8646 122.457C58.7399 124.367 59.7418 125.467 61.9422 125.684C64.2145 125.911 65.3507 125.043 65.3507 123.069C65.3507 121.096 64.6412 120.17 63.2126 120.054C60.0007 119.798 57.8818 119.176 56.8607 118.216C55.8444 117.256 55.3314 115.403 55.3314 112.638C55.3314 110.158 55.7965 108.503 56.7265 107.659C57.6565 106.815 59.4494 106.429 62.0956 106.516C64.598 106.598 66.2807 107.09 67.1436 108.006C68.0065 108.918 68.438 110.675 68.438 113.256" fill="#329A2C"></path>
<path d="M75.4268 97.2908V116.291C75.7959 116.315 75.9829 116.329 76.352 116.348C77.9723 112.822 78.7825 111.036 80.4028 107.413C82.0711 107.466 82.91 107.495 84.5783 107.553C82.8477 111.2 81.1075 114.838 79.3482 118.467C81.4767 122.838 83.5764 127.233 85.6426 131.648C83.8592 131.45 82.9676 131.344 81.1843 131.146C79.5687 127.503 77.9436 123.875 76.2993 120.252C75.9493 120.223 75.7719 120.208 75.422 120.179V130.495C73.9838 130.331 73.2647 130.249 71.8218 130.089V97.2908H75.422" fill="#329A2C"></path>
</svg>
