<svg width="32" height="32" viewBox="0 0 32 32" fill="none" xmlns="http://www.w3.org/2000/svg">
<path d="M7.07186 9.33309C4.83012 9.87144 2.81339 12.4528 3.89284 14.7828C4.22138 15.4924 4.8315 16.0404 5.50927 16.431C7.57708 17.6195 9.85471 17.8666 12.1668 18.0875C14.0193 18.2642 15.8759 18.5264 17.7256 18.728C18.9997 18.866 20.6162 19.1545 21.628 20.0269C22.6108 20.8758 22.8745 22.1568 22.4038 23.3384C21.8806 24.6512 20.6258 25.5774 19.4083 26.2014C18.2599 26.7894 17.0134 27.1524 15.7738 27.5127C14.1049 27.9986 12.4415 28.5466 10.7409 28.8696C9.00025 29.2009 7.20162 29.3224 5.4513 28.9897C4.51954 28.813 3.58364 28.4942 2.87274 27.8675C2.16047 27.2394 1.71046 26.2552 1.91338 25.329C2.04175 24.7423 2.41308 24.2329 2.8548 23.8243C4.11371 22.6593 5.93443 22.2507 7.64334 22.3887C9.35225 22.5282 10.9811 23.1576 12.5506 23.8519C14.6584 24.7837 16.7097 25.8425 18.6905 27.0185C20.1675 27.8965 21.6887 28.8669 23.4032 28.9663C25.1217 29.0656 26.8168 28.2278 27.9722 26.9523C29.3498 25.4311 30.1794 23.2846 30.1353 21.2292C30.0801 18.7073 28.7618 16.2888 26.6526 14.8988C24.992 13.8041 22.9863 13.3818 21.0192 13.0863C18.4987 12.7081 15.9546 12.5038 13.4106 12.363C12.4415 12.3092 11.4656 12.2636 10.5242 12.0331C9.58278 11.8026 8.66344 11.3705 8.01052 10.6527C7.07876 9.62849 6.84962 8.10731 7.23337 6.80285C7.62125 5.48735 8.69243 4.5694 9.91407 4.02001C10.1984 3.89163 10.4924 3.78258 10.7906 3.68871C11.7679 3.38227 12.8377 3.44991 13.8606 3.55068C14.8834 3.65144 15.818 4.01863 16.7732 4.45483C18.0459 5.03597 19.4359 5.8076 20.4892 6.74902" stroke="#7530FE" stroke-width="3.3" stroke-linecap="round"/>
<path d="M22.3831 3.49658L11.144 22.9061" stroke="#7530FE" stroke-width="3.3" stroke-linecap="square"/>
</svg>
