<svg xmlns="http://www.w3.org/2000/svg" viewBox="0 0 300 300" width="300" height="300">
	<defs>
		<clipPath clipPathUnits="userSpaceOnUse" id="cp1">
			<path d="M-14 53L639.23 53L639.23 248L-14 248L-14 53Z" />
		</clipPath>
		<clipPath clipPathUnits="userSpaceOnUse" id="cp2">
			<path d="M-14 53L639.23 53L639.23 248L-14 248L-14 53Z" />
		</clipPath>
		<clipPath clipPathUnits="userSpaceOnUse" id="cp3">
			<path d="M-14 53L639.23 53L639.23 248L-14 248L-14 53Z" />
		</clipPath>
		<clipPath clipPathUnits="userSpaceOnUse" id="cp4">
			<path d="M-14 53L639.23 53L639.23 248L-14 248L-14 53Z" />
		</clipPath>
		<clipPath clipPathUnits="userSpaceOnUse" id="cp5">
			<path d="M-14 53L639.23 53L639.23 248L-14 248L-14 53Z" />
		</clipPath>
		<clipPath clipPathUnits="userSpaceOnUse" id="cp6">
			<path d="M-14 53L639.23 53L639.23 248L-14 248L-14 53Z" />
		</clipPath>
	</defs>
	<style>
		tspan { white-space:pre }
		.shp0 { fill: #1f9996 } 
		.shp1 { fill: #7bb846 } 
		.shp2 { fill: #7e7e7f } 
		.shp3 { fill: #eda127 } 
		.shp4 { fill: #d07327 } 
		.shp5 { fill: #bf2330 } 
	</style>
	<g id="Layer">
		<g id="Clip-Path" clip-path="url(#cp1)">
			<path id="Layer" fill-rule="evenodd" class="shp0" d="M219.8 137.51L221.68 142.93C223.82 150.26 224.9 158.03 224.76 166.07C224.69 170.42 224.25 174.68 223.49 178.83L222.97 181.15L220.48 179.81C208.2 173.63 194.89 169.18 180.87 166.79L173.99 165.79L177.5 161.6C187.1 151.03 199.54 143.09 213.59 138.99L219.8 137.51Z" />
		</g>
		<g id="Clip-Path" clip-path="url(#cp2)">
			<path id="Layer" fill-rule="evenodd" class="shp1" d="M179.64 95.44L185.67 98.47C196.56 104.64 205.8 113.36 212.59 123.8L216.07 129.76L215.28 130.29C201.48 138.69 185.65 144.05 168.73 145.47L166.69 145.59L166.69 144.62C166.99 127.28 171.39 110.97 178.96 96.6L179.64 95.44Z" />
		</g>
		<g id="Clip-Path" clip-path="url(#cp3)">
			<path id="Layer" fill-rule="evenodd" class="shp2" d="M150.24 169C189.61 169 225.07 184.87 258.4 205.8L269.85 213.51L269.88 213.48L271.23 214.33C273.35 215.75 274.4 216.65 274.24 216.98C274.08 217.3 272.73 217.03 270.3 216.23L269.71 216.01L269.68 216.02C232.34 202 191.3 194.25 148.21 194.25C105.12 194.25 64.07 202 26.74 216.02L26.7 216.01L26.47 216.09C24.04 216.9 22.7 217.17 22.54 216.84C22.46 216.68 22.68 216.37 23.18 215.93L24.04 215.31L23.94 215.28L38.07 205.8C71.67 184.87 110.87 169 150.24 169Z" />
		</g>
		<g id="Clip-Path" clip-path="url(#cp4)">
			<path id="Layer" fill-rule="evenodd" class="shp3" d="M122.84 92.93L129.29 90.93C141.41 87.8 154.11 87.65 166.25 90.44L172.89 92.31L172.69 93.25C168.6 108.87 160.94 123.72 149.75 136.5L148.37 138L147.69 137.31C135.86 124.63 127.7 109.84 123.16 94.25L122.84 92.93Z" />
		</g>
		<g id="Clip-Path" clip-path="url(#cp5)">
			<path id="Layer" fill-rule="evenodd" class="shp4" d="M80.87 130.93L84.12 125.01C90.66 114.34 99.69 105.41 110.36 98.99L116.44 95.72L116.95 96.53C124.85 110.61 129.66 126.62 130.49 143.58L130.54 145.62L129.57 145.59C112.25 144.69 96.1 139.71 82.01 131.65L80.87 130.93Z" />
		</g>
		<g id="Clip-Path" clip-path="url(#cp6)">
			<path id="Layer" fill-rule="evenodd" class="shp5" d="M77.5 137.64L75.62 143.06C73.48 150.39 72.39 158.16 72.53 166.2C72.61 170.55 73.04 174.81 73.8 178.96L74.33 181.27L76.81 179.94C89.09 173.76 102.4 169.31 116.42 166.92L123.31 165.92L119.8 161.73C110.19 151.16 97.75 143.22 83.7 139.12L77.5 137.64Z" />
		</g>
	</g>
</svg>